<svg xmlns="http://www.w3.org/2000/svg" viewBox="0 -0.5 32 32" shape-rendering="crispEdges">
<metadata>Made with Pixels to Svg https://codepen.io/shshaw/pen/XbxvNj</metadata>
<path stroke="#1e1818" d="M9 1h8M7 2h2M17 2h2M5 3h2M19 3h2M4 4h1M21 4h1M3 5h1M22 5h1M2 6h1M23 6h1M1 7h1M24 7h3M1 8h1M27 8h1M1 9h1M28 9h1M1 10h1M24 10h2M29 10h1M1 11h1M24 11h1M26 11h1M30 11h1M1 12h1M24 12h1M27 12h1M30 12h1M1 13h1M24 13h1M27 13h1M30 13h1M1 14h1M24 14h1M27 14h1M30 14h1M1 15h1M24 15h1M27 15h1M30 15h1M1 16h1M24 16h1M27 16h1M30 16h1M1 17h1M24 17h1M27 17h1M30 17h1M1 18h1M24 18h1M26 18h1M30 18h1M1 19h1M25 19h1M29 19h1M1 20h1M28 20h1M1 21h1M27 21h1M1 22h1M25 22h2M2 23h1M23 23h2M2 24h1M23 24h1M3 25h1M22 25h1M3 26h1M22 26h1M4 27h1M21 27h1M5 28h1M20 28h1M6 29h2M18 29h2M8 30h10" />
<path stroke="#e5e6e2" d="M9 2h1M7 3h4M18 3h1M6 4h3M18 4h2M6 5h1M20 5h1M21 6h1M25 8h1M26 9h1M27 10h1M2 12h1M23 12h1M28 12h1M2 13h2M22 13h2M28 13h2M3 14h2M21 14h2M28 14h2M5 15h1M20 15h1M29 15h1M18 16h1M13 17h3" />
<path stroke="#fefefe" d="M10 2h7M11 3h7M5 4h1M20 4h1M4 5h2M21 5h1M3 6h2M22 6h1M2 7h2M22 7h2M2 8h2M22 8h2M26 8h1M2 9h2M22 9h2M27 9h1M2 10h2M22 10h2M28 10h1M2 11h2M22 11h2M28 11h2M3 12h1M22 12h1M29 12h1M4 13h1M21 13h1M5 14h2M19 14h2M6 15h3M18 15h2M7 16h8M9 17h4" />
<path stroke="#707569" d="M9 4h1M7 5h3M6 6h4M5 7h3M4 8h3M21 8h1M4 9h1M21 9h1M21 15h1M2 16h1M19 16h3M2 17h1M18 17h4M28 17h1M2 18h2M18 18h4M27 18h1M2 19h2M15 19h1M18 19h3M26 19h1M2 20h2M15 20h1M2 21h2M14 21h2M2 22h2M3 23h1M3 24h1M13 27h1M13 28h5M12 29h4" />
<path stroke="#adb1a7" d="M10 4h8M10 5h10M5 6h1M16 6h5M4 7h1M18 7h4M19 8h2M24 8h1M24 9h2M26 10h1M27 11h1M28 15h1M28 16h2M29 17h1" />
<path stroke="#dbc9b7" d="M10 6h2M11 7h1" />
<path stroke="#bfa89b" d="M12 6h1M12 7h2M12 8h1M16 8h2M16 9h2" />
<path stroke="#7c4b38" d="M13 6h1M14 8h2M14 9h1M10 14h1" />
<path stroke="#561a00" d="M14 6h2M14 7h2" />
<path stroke="#a16331" d="M8 7h2" />
<path stroke="#946954" d="M10 7h1M8 9h1M15 9h1M18 9h1M20 9h1M14 10h2M14 11h3M19 11h1M20 12h1" />
<path stroke="#c5ac9b" d="M16 7h2" />
<path stroke="#c4a896" d="M7 8h1M6 9h2M5 10h1" />
<path stroke="#82370a" d="M8 8h2" />
<path stroke="#692f1b" d="M10 8h2" />
<path stroke="#400f00" d="M13 8h1M18 8h1M10 9h4M19 9h1M10 10h4M19 10h3M9 11h5M20 11h2M21 12h1" />
<path stroke="#722a02" d="M5 9h1M4 10h1M4 11h2M16 14h1" />
<path stroke="#722d08" d="M9 9h1M8 10h2M8 11h1" />
<path stroke="#b68e76" d="M6 10h2M7 11h1" />
<path stroke="#ad7f61" d="M16 10h2M17 11h1M17 13h1" />
<path stroke="#441200" d="M18 10h1M18 11h1" />
<path stroke="#6a2a00" d="M6 11h1M6 12h2M6 13h2" />
<path stroke="#521900" d="M4 12h2M5 13h1M8 14h2" />
<path stroke="#602200" d="M8 12h2M8 13h2M7 14h1" />
<path stroke="#501700" d="M10 12h2M19 12h1M10 13h2M20 13h1M11 14h1M9 15h3" />
<path stroke="#83462b" d="M12 12h2M12 13h3M13 14h1M17 14h1" />
<path stroke="#c59b75" d="M14 12h2M15 13h1" />
<path stroke="#cda47f" d="M16 12h2M16 13h1M18 14h1" />
<path stroke="#481300" d="M18 12h1M18 13h2" />
<path stroke="#999c94" d="M2 14h1M2 15h3M3 16h4M3 17h6M4 18h2M8 18h2M4 19h2M8 19h2M4 20h2M4 21h2M4 22h2M13 22h1M4 23h3M12 23h2M4 24h3M12 24h2M4 25h4M11 25h3M4 26h4M11 26h3M5 27h3M10 27h3M6 28h7M8 29h4" />
<path stroke="#975529" d="M12 14h1M12 15h2" />
<path stroke="#ffe8ab" d="M14 14h2M15 15h2M16 18h2M16 19h2" />
<path stroke="#565a50" d="M23 14h1M22 15h2M22 16h2M22 17h2M22 18h2M28 18h2M21 19h4M27 19h2M22 20h6M22 21h5M22 22h3M22 23h1M22 24h1M21 26h1M20 27h1M18 28h2M16 29h2" />
<path stroke="#cfb983" d="M14 15h1M17 15h1M15 16h3M16 17h2M16 20h2M16 21h1" />
<path stroke="#afb2aa" d="M6 18h2M10 18h6M6 19h2M10 19h5M6 20h9M6 21h8M6 22h7M7 23h5M7 24h5M8 25h3M8 26h3M8 27h2" />
<path stroke="#800620" d="M18 20h2M17 21h2M14 22h5M14 23h3M14 24h3M14 25h1" />
<path stroke="#8f0724" d="M20 20h2M19 21h3M19 22h3M17 23h5M17 24h4M15 25h4M14 26h3M14 27h2" />
<path stroke="#aa082b" d="M21 24h1M19 25h3M17 26h4M16 27h4" />
</svg>